<?xml version="1.0" encoding="UTF-8" standalone="no"?>
<svg
   xmlns:dc="http://purl.org/dc/elements/1.1/"
   xmlns:cc="http://creativecommons.org/ns#"
   xmlns:rdf="http://www.w3.org/1999/02/22-rdf-syntax-ns#"
   xmlns:svg="http://www.w3.org/2000/svg"
   xmlns="http://www.w3.org/2000/svg"
   xmlns:sodipodi="http://sodipodi.sourceforge.net/DTD/sodipodi-0.dtd"
   xmlns:inkscape="http://www.inkscape.org/namespaces/inkscape"
   version="1.1"
   id="layer"
   x="0px"
   y="0px"
   viewBox="0 0 512 512"
   xml:space="preserve"
   sodipodi:docname="eberhard-karls-universitaet-tuebingen-vector-logo.svg"
   width="512"
   height="512"
   inkscape:version="1.0.2 (1.0.2+r75+1)"><metadata
   id="metadata939"><rdf:RDF><cc:Work
       rdf:about=""><dc:format>image/svg+xml</dc:format><dc:type
         rdf:resource="http://purl.org/dc/dcmitype/StillImage" /><dc:title></dc:title></cc:Work></rdf:RDF></metadata><defs
   id="defs937" /><sodipodi:namedview
   pagecolor="#ffffff"
   bordercolor="#666666"
   borderopacity="1"
   objecttolerance="10"
   gridtolerance="10"
   guidetolerance="10"
   inkscape:pageopacity="0"
   inkscape:pageshadow="2"
   inkscape:window-width="1848"
   inkscape:window-height="1016"
   id="namedview935"
   showgrid="false"
   inkscape:zoom="0.86042945"
   inkscape:cx="326"
   inkscape:cy="326"
   inkscape:window-x="72"
   inkscape:window-y="27"
   inkscape:window-maximized="1"
   inkscape:current-layer="layer" />
<style
   type="text/css"
   id="style922">
	.st0{fill-rule:evenodd;clip-rule:evenodd;fill:#A21E3A;}
</style>
<g
   id="g932"
   transform="matrix(3.5556726,0,0,3.5556728,-1815.3571,-888.74885)">
	<g
   id="g930">
		<g
   id="g928">
			
			<path
   class="st0"
   d="m 597.4,310 c 0,0.5 0.1,0.9 0.3,1.2 -0.2,0.6 -0.3,1.1 -0.4,1.9 -0.2,1.4 -0.1,2.3 0.3,3.7 l 0.8,-1.8 0.1,-2.8 c 0.8,0.8 1.7,1.4 2.1,2.8 0.3,1.2 0.2,2.8 -0.4,4.4 -2.4,-0.2 -4,-1 -4.7,-3 -0.6,-1.4 -0.2,-5 1.9,-6.4 M 565,309.6 c 1.9,-1.5 5.1,-1.4 6.6,0.5 -1.5,0.1 -3,0.9 -3.9,1.5 l -0.9,-1.8 z m 0.1,6.7 c -1.7,-1.4 -2.2,-3.5 -1.2,-5.5 l 1.4,0.4 1.4,1.1 c -1,1.1 -1.4,2.3 -1.6,4 m 9.6,-56.9 c 1,1.4 1.7,3.1 2.3,5 -1.5,-0.8 -2.9,-1.5 -4.2,-2 z m -8.6,-4 c 2.9,0.2 5,0.9 6.6,1.9 l 0.2,1.5 c 0,0 -0.8,2 -1.3,3.2 -0.9,-0.2 -1.8,-0.4 -2.7,-0.5 -0.2,-0.5 -0.5,-1.1 -0.8,-1.4 -0.7,-0.8 -1.3,-1.2 -2.2,-1.6 l 0.2,-1.6 z m -9.1,2.9 c 2.1,-1.7 4.6,-2.8 7.5,-2.9 -0.2,1.2 -0.8,3.1 -1,3.7 0.1,0.2 0.9,1.4 1.1,2.2 -1.2,0 -2.2,0.1 -3.2,0.2 -1.2,-0.9 -3.4,-2.5 -4.4,-3.2 m -4.4,5.2 c 0.9,-1.6 2,-3.1 3.4,-4.4 0.7,0.4 1.2,0.7 2,1.3 0.5,0.5 0.9,0.8 1.3,1.3 -2.2,0.5 -4.2,1.3 -6.4,2.6 0,-0.1 0,-0.3 -0.1,-0.5 z m 36.5,-3.2 c 0.5,0.3 0.7,0.6 0.9,1.1 -2.9,1.5 -4.7,2.9 -7,5.6 -0.1,-2 -0.5,-4.2 0.6,-6.5 0.5,-0.2 0.9,-0.3 1.5,-0.3 0.7,0 2.2,-0.2 2.6,-0.3 0.5,-0.2 0.9,0 1.4,0.4 m 2.8,-5.1 c 0.6,-0.1 1.3,-0.1 2,0 3.4,0.1 5.6,1 8,3.3 -2.2,0 -4,0.1 -5.7,0.5 l -2.4,-0.6 z m -5.5,1.9 c 1.1,-0.8 2.3,-1.3 3.7,-1.6 0.5,0.4 1.1,1.1 1.4,1.4 0.7,0.7 1.2,1.3 1.2,2.3 0,0.4 -0.1,0.7 -0.2,1 l -0.9,0.4 c -0.4,-0.6 -0.9,-1 -1.6,-1.5 -0.6,-0.2 -2.7,-1.5 -3.6,-2 m 6.7,14.2 c -1.4,0.5 -2.8,1.2 -4,2.1 -0.5,-1.7 -0.7,-3.5 -0.3,-3.7 1,-0.1 1.6,-0.1 2.6,0.3 0.7,0.4 1.2,0.7 1.7,1.3 m 5.9,-1.2 c -1.6,0.1 -3,0.4 -4.4,0.7 0,-0.5 0,-0.9 0,-1.5 -0.1,-1.5 -0.2,-2.3 -0.5,-3.7 1,0.6 1.5,1 2.4,1.7 1.1,1 1.7,1.7 2.5,2.8 m 8.5,0.9 c -1.5,-0.5 -3.2,-0.8 -5,-0.9 0,-0.6 0,-1 0,-1.7 0,-1.1 -0.1,-1.7 -0.2,-2.7 0.8,0.2 1.3,0.4 2,0.8 0.9,0.6 1.4,1.1 2,2 0.7,0.9 1,1.5 1.2,2.5 m 4.2,-5.6 c 3.3,2.9 5.1,7.1 3.9,11.1 -1.6,-1.7 -3.2,-3.1 -5,-4.1 -0.5,-0.9 -0.7,-1.6 -0.7,-2.6 0,-1.9 0.5,-3.3 1.8,-4.4 m -7.1,-3.5 c 0.9,0.2 1.8,0.5 2.8,0.8 1.2,0.5 2.4,1.1 3.5,1.9 -0.9,0.8 -1.5,1.4 -2.6,2.2 -0.5,0.4 -0.8,0.5 -1.3,0.9 -1,-1.3 -1.5,-2.1 -1.9,-3.7 -0.4,-0.9 -0.5,-1.4 -0.5,-2.1 m -11.4,0.6 c 3.1,-1 6.5,-1.4 10,-0.9 -0.8,0.3 -1.3,0.7 -2,1.4 -0.7,0.7 -0.9,1.2 -1.4,2.1 -0.4,0.7 -0.6,1.1 -0.8,1.9 l -1.5,-1.1 c -1.1,-0.8 -1.8,-1.3 -2.9,-2.1 -0.5,-0.5 -0.9,-0.8 -1.4,-1.3 m -10.2,9.1 c 0.5,-2 1.5,-3.8 3,-5 1.7,-1.4 3.7,-2.6 5.9,-3.5 0,1 0.1,1.6 0.4,2.7 0.2,0.7 0.4,1 0.6,1.6 0.3,0.9 0.4,1.4 0.7,2.3 -1.5,-0.5 -2.3,-0.8 -3.8,-1.1 -1,-0.2 -1.6,-0.3 -2.7,-0.4 -0.1,0.4 -0.1,0.7 0,1.1 0.1,0.9 0.9,1.3 0.9,2.2 0,0.5 0,0.8 -0.2,1.3 z m 0.2,8.4 c -0.4,-1.2 -0.6,-2.6 -0.6,-4 l 1.6,0.4 c 0,-0.5 -0.1,-0.8 -0.1,-1.4 -0.1,-0.9 -0.2,-1.5 -0.3,-2.4 1.2,0.3 1.9,0.5 3.1,0.7 0.7,0.2 1.2,0.3 1.9,0.4 -2.2,1.6 -4,3.7 -5.6,6.3 m -35.4,25.3 c 1.3,1 2.1,1.5 3.5,2.2 1.3,0.7 2.1,1 3.5,1.5 -1.3,0.5 -2.2,0.6 -3.6,0.6 -0.7,0 -1.1,0 -1.7,-0.1 0,0 -1.6,-1.9 -1.7,-4.2 m 65.7,-14.6 c 1.3,2.8 1.5,6 0,8.8 -0.8,-1.9 -2.3,-4.4 -4.4,-6.2 z m -7.7,-6.2 c 0.5,0.1 0.9,0.3 1.4,0.4 2.2,0.8 4.1,2.3 5.4,4.2 -0.3,0.4 -0.5,0.7 -0.9,1.2 -1,1.1 -1.8,1.7 -3.2,2.4 -0.2,-0.2 -0.4,-0.3 -0.6,-0.4 0,-1 0,-2 -0.3,-3.1 -0.5,-1.9 -0.9,-3.1 -1.8,-4.7 m -16.5,14.4 c -1.5,2.2 -2.6,4.7 -3.4,7.4 0.2,-3 0.7,-5.9 1.6,-8.4 z m 7.1,-6.6 c -2.5,1.3 -4.8,3.4 -6.6,6 l -1.8,-1.6 c 1.1,-2.7 2.5,-5.1 4.1,-7 z m 9.1,-1.1 c -2.3,-0.6 -4.6,-0.5 -6.8,0.1 -0.6,-0.8 -2.1,-1.5 -2.1,-1.5 -0.6,-0.3 -2.4,-1 -3.5,-1.4 1.6,-1.6 3.5,-2.8 5.4,-3.6 0.5,0.2 0.9,0.5 1.4,1 0.7,0.6 1,1 1.4,1.8 0.3,-0.7 0.5,-1.1 0.8,-1.9 0.3,-0.7 0.4,-1.1 0.6,-1.7 0.5,0 0.9,0 1.4,0.1 0.6,1.3 1.4,3.1 1.4,3.1 l 1.4,4.4 c -0.4,0 -0.9,-0.2 -1.4,-0.4 m -15.4,-2.6 c -0.8,1 -1.5,2.1 -2,3.2 -0.6,1.2 -1.1,2.4 -1.6,3.6 l -2.6,-2.1 0.7,-1.3 1.6,-0.7 -0.9,-1.3 c 0.8,-0.5 1.2,-0.7 2.1,-1 0.7,-0.3 1.1,-0.6 1.9,-0.5 0.4,-0.1 0.6,0 0.8,0.1 m 22.1,-3 -0.6,-0.4 c -0.9,-0.7 -1.7,-1.2 -2.6,-1.6 0,-0.7 -0.2,-1.2 -0.4,-2 -0.3,-0.8 -0.5,-1.2 -0.9,-1.9 -0.2,0.8 -0.4,1.3 -0.7,2.1 l -0.3,0.9 c -3.1,-0.9 -6.3,-0.5 -9.8,0.9 -2.8,1.1 -4.9,2.8 -6.5,4.8 -0.5,-0.3 -0.9,-0.6 -1.3,-1.1 -0.6,-0.6 -0.9,-1.1 -1.3,-1.9 0.9,-0.4 1.5,-0.5 2.5,-0.6 0.7,-0.1 1.2,-0.1 1.9,-0.1 -0.1,-0.6 -0.1,-1 -0.1,-1.6 0,-0.6 -0.1,-1 -0.1,-1.7 0.9,0 1.5,0 2.4,0.1 0.8,0.1 1.3,0.3 2,0.5 0.2,-0.5 0.7,-3.6 0.8,-4 0.4,0.3 3.7,3 4.3,3.1 0,-0.7 0,-1 0.1,-1.7 0.2,-1.2 0.4,-1.8 0.9,-2.9 0.5,0.5 0.7,0.8 1.1,1.4 0.5,0.7 1.2,2.4 1.3,2.8 0.7,-0.7 1.1,-1.1 1.7,-1.8 0.6,-0.7 1,-1.1 1.6,-1.8 0.7,0.5 1.9,2.1 2.4,2.9 0.4,1.1 1.4,5 1.6,5.6 m 4.7,-4.3 c 0.4,0.8 0.8,1.7 1.1,2.6 1.4,3.9 1.7,6.6 -0.7,10.7 -0.4,-2.5 -1.1,-4.4 -2.3,-6.1 0,-0.8 0.1,-1.6 0.3,-2.6 0.2,-1.5 0.9,-3.2 1.6,-4.6 m -6.1,-6.3 c 2.2,1.1 3.9,2.7 5.1,4.8 -0.2,0.4 -0.5,0.9 -0.8,1.3 -0.6,0.9 -1.1,1.3 -2,2 0,-0.8 -0.3,-1.5 -0.6,-2.3 -0.3,-0.9 -0.5,-1.1 -0.9,-1.9 -0.4,-1.6 -0.6,-2.5 -0.8,-3.9 m -8.8,-2 c 1.9,0 3.9,0.3 6,0.9 l 0.6,0.2 0.8,0.8 c -0.9,0.6 -1.4,1 -2.2,1.7 -0.8,0.8 -1.2,1.3 -1.9,2.2 -0.8,-1.2 -1.2,-1.9 -2,-3.1 -0.4,-1.1 -0.8,-1.7 -1.3,-2.7 m -18.8,16.9 c 0,-0.4 0.1,-0.8 0.2,-1.2 0.5,-3.3 3.8,-8.8 7.4,-11.5 0.5,0.1 0.9,0.2 1.5,0.4 0.9,0.3 1.3,0.6 2.1,1.1 0,-0.8 0,-1.2 0,-2 0,-0.6 -0.1,-1.1 -0.2,-1.6 0.9,-0.5 1.8,-0.9 2.8,-1.2 0.4,0.2 0.8,0.4 1.3,0.8 0.7,0.5 1.1,0.9 1.6,1.5 l 1.2,-3.1 h 0.4 c 0.1,1.4 0.1,2.3 -0.1,3.7 -0.2,1 -0.3,1.6 -0.6,2.6 l -4.1,-2.9 -0.8,4.1 c -1,-0.2 -1.6,-0.4 -2.7,-0.5 -1.1,-0.2 -1.7,-0.2 -2.8,-0.3 0,0.7 0,1.1 0.1,1.9 0.1,0.7 0.1,1.1 0.2,1.9 -0.9,0.5 -1.5,0.8 -2.6,1.1 -0.9,0.3 -1.4,0.4 -2.4,0.5 -0.2,0.4 0.4,0.7 1,1.1 0.5,0.3 0.5,0.7 0.8,1.2 0,0.3 0.1,0.6 -0.2,0.7 -0.9,0.4 -1.4,0.6 -2.2,1 z m -0.1,8.9 c -0.1,-1.6 -0.2,-3.1 -0.1,-4.6 0.7,0.2 1.2,0.5 1.8,1.1 0.4,0.4 0.6,0.7 0.9,1.2 -0.3,0.5 -0.5,0.7 -0.9,1.2 -0.6,0.4 -1,0.7 -1.7,1.1 m 0.5,5.4 c -0.2,-1.6 -0.4,-3.2 -0.5,-4.7 l 2.1,-0.2 c -0.6,2 -1.1,3.8 -1.6,4.9 m 24.8,12.5 c -1.7,2.2 -3.6,4 -5,5.1 1.7,-2.5 2.4,-4.2 3,-7.1 0.3,-1.3 0.5,-2.5 0.5,-3.7 0.7,0.5 1,1.1 1.3,1.9 0.3,0.9 0,1.5 0.1,2.4 0.1,0.5 0.1,0.9 0.1,1.4 m 5.2,-10.8 c 0,0.5 -0.1,1 -0.2,1.5 -0.5,2.4 -1.8,4.9 -3.4,7.2 -0.2,-1 -0.6,-2.5 -1.4,-3.9 -0.5,-0.9 -1.2,-1.4 -1.7,-1.7 0,-0.5 -0.1,-0.9 -0.1,-1.3 1.2,-0.9 2.1,-1.3 3.6,-1.6 1.3,-0.4 2.1,-0.4 3.2,-0.2 m -14.2,-12.6 c 1,-0.2 2.1,-0.3 3.2,-0.3 2.1,0.1 4.3,1 6,2.4 0.1,0.6 0.2,1 0,1.9 -0.3,1 -0.5,1.7 -1,2.7 -0.4,-1.3 -1,-3.4 -1.4,-3.4 -0.5,0 -2.9,0.9 -3.8,1 0.1,0.4 0.2,0.9 0.3,1.4 0.5,-0.2 2.3,-0.7 2.9,-0.9 0.3,0.8 1.1,3.4 1.2,4.5 0.6,-0.3 0.7,-0.4 1.4,-0.4 0.4,0 1.2,0.1 1.6,0.1 -0.2,0.5 -0.3,1.2 -0.6,1.7 -0.5,0.9 -0.9,1.5 -1.7,2.1 -0.3,0.2 -0.5,0.4 -0.7,0.5 l -0.1,-0.4 c -0.8,-3.2 -3,-4.8 -6,-5.4 0.1,-1.5 0.1,-2.4 -0.2,-3.9 -0.4,-1.5 -0.6,-2.3 -1.1,-3.6 M 588,305.7 c 0.5,-1.6 1.2,-3.3 2.2,-4.9 2,-3.2 4.5,-5.8 7.7,-7 0.3,1.1 1.3,3.9 1.3,3.9 0,0.5 -0.1,2 -0.1,2.9 -3.2,-0.2 -5.6,1.7 -7.9,4.3 -0.4,0.4 -0.7,0.9 -1.1,1.4 -0.6,0.1 -1.1,0 -1.8,-0.3 0,-0.1 -0.1,-0.2 -0.3,-0.3 m 0.3,6 c -0.5,-1 -1.1,-1.7 -0.9,-2.8 0.1,-0.7 0.2,-1.5 0.4,-2.3 0.2,0.2 0.4,0.3 0.7,0.5 0.4,0.3 0.8,0.4 1.2,0.6 -0.8,1.5 -1.1,3 -1.4,4 m -32.8,-46.1 c 2,-1.2 4,-1.9 5.5,-2 -1.9,1.6 -3.4,3.2 -4.7,4.8 0,-0.4 -0.1,-0.7 -0.2,-1.2 0,-0.3 -0.3,-1 -0.6,-1.6 m -6.3,5.4 c 1.2,-1.5 2.7,-2.9 4.3,-4.1 0,0.3 0.1,0.5 0.2,0.8 0.2,0.5 0.8,1.7 1.3,2.5 -0.9,1.2 -1.6,2.4 -2.4,3.7 -0.7,-0.6 -1.1,-1.1 -1.8,-1.7 -0.3,-0.2 -1.2,-0.8 -1.6,-1.2 m -3.1,10.3 c -0.4,-2.7 0,-5.4 1.6,-8.2 0.1,-0.2 0.3,-0.5 0.4,-0.7 0.2,0.6 0.5,1 0.9,1.6 0.4,0.5 1.7,1.3 2.5,1.8 -0.9,1.6 -1.5,3.1 -1.9,4.6 z m 2.2,5.9 c -0.9,-1.6 -1.5,-3.2 -1.9,-4.8 0.4,-0.1 0.7,-0.2 1.1,-0.3 0.6,-0.1 1.1,-0.1 1.7,-0.1 -0.4,1.6 -0.7,3.3 -0.9,5.2 m 13.2,22.7 c -0.7,1.2 -1.1,2.6 -1.1,4.1 -1,-0.8 -1.7,-2.1 -2.2,-3.5 z m 4.7,-3.9 c -0.1,0.1 -0.3,0.1 -0.4,0.2 -1.2,0.5 -2.3,1.3 -3.1,2.2 l -4.8,0.6 c -0.3,-2.1 -0.1,-4.4 0.7,-6.3 1.7,0.2 2.8,0.5 4.4,1.2 1.4,0.6 2.2,1.1 3.2,2.1 m 9.4,2.5 c -0.5,-0.6 -1.2,-1.1 -1.8,-1.5 -0.5,-1.5 -1.1,-3.3 -1.4,-3.8 -0.4,-0.8 -0.8,-1.2 -1.4,-1.7 -0.7,0.4 -1.1,0.6 -1.7,1.2 -0.4,0.4 -1.3,1.2 -1.6,1.7 -0.3,-0.6 -0.5,-0.9 -0.9,-1.5 -0.8,-1.1 -1.4,-1.7 -2.6,-2.4 -0.3,0.3 -0.5,0.6 -0.6,1 -0.1,0.3 -0.1,0.6 0,0.9 -0.9,-0.1 -1.4,-0.2 -2.1,-0.6 -0.7,-0.4 -1.2,-0.7 -1.6,-1.2 0.4,-0.5 0.8,-0.9 1.4,-1.3 7.9,-5.8 14.5,1.8 14.3,9.2 m -5.8,-35.7 c -0.8,-0.1 -1.6,-0.2 -2.4,-0.2 -1.1,0 -2.1,0.1 -3,0.3 l 1.6,-2.8 0.8,-1.1 c 0.8,0.6 1.2,1 1.8,1.8 0.5,0.7 0.9,1.2 1.2,2 m 10.5,-0.7 c 1,2.5 1.1,5.3 0.6,7.6 -2.6,-3.7 -5.6,-5.8 -9.4,-6.7 l 1.6,-5.8 c 1.3,1 2,1.7 2.9,3.1 0.6,0.9 1.6,3.1 2.3,4.9 0.1,-0.4 0.3,-0.8 0.6,-1.3 0.4,-0.7 0.8,-1.2 1.4,-1.8 m -5.7,-6.1 c 2.2,1 3.8,2.6 4.9,4.5 -0.1,0.2 -0.3,0.4 -0.5,0.6 -0.3,0.3 -0.4,0.5 -0.7,0.9 -0.3,-0.2 -0.5,-0.4 -0.8,-0.7 -0.6,-0.7 -1.8,-3.4 -2.3,-4.1 -0.2,-0.5 -0.4,-0.8 -0.6,-1.2 m -14.4,1.5 c 2.6,-1.7 5.5,-2.6 8.9,-2.6 1.2,0 2.3,0.1 3.3,0.4 v 0.7 c -0.2,1.1 -0.4,1.7 -0.8,2.8 -0.3,0.7 -0.6,1.1 -1,1.8 -0.4,-0.3 -4.2,-3.2 -4.7,-3.2 -0.4,1.1 -1.8,4.8 -2.6,5.8 l -0.3,0.1 c -0.3,-1 -0.6,-1.7 -1.4,-2.5 -0.6,-0.7 -1.1,-1 -1.9,-1.4 l 0.3,-0.8 z m -5,4.8 c 1.1,-1.4 2.3,-2.7 3.5,-3.7 0.2,0.6 0.4,1.2 0.5,1.7 l 2.2,2.1 0.7,1 c -1.7,0.6 -3.2,1.5 -4.6,2.5 -0.4,-0.6 -1.1,-1.6 -1.2,-2 -0.1,-0.2 -0.6,-1.2 -1.1,-1.6 z m -4.3,12.1 c 0,-4.5 0.9,-7.5 3.3,-10.8 l 0.7,0.2 c 0.1,0.7 0.3,1.1 0.6,1.7 0.3,0.6 0.5,0.9 0.9,1.3 -2.4,2.1 -4.3,4.8 -5.5,7.6 m 22.8,4.9 c -0.6,-0.3 -1.2,-0.6 -1.8,-0.8 -0.2,-0.7 -0.3,-1.3 -0.4,-2.1 -0.1,-0.9 -0.1,-1.3 -0.1,-2.2 0.5,0.2 0.8,0.4 1.2,0.7 0.3,0.2 0.5,0.4 0.8,0.7 0.7,-0.3 1.1,-0.4 1.9,-0.3 0.6,0.1 0.9,0.1 1.4,0.4 -0.8,0.7 -1.3,1.1 -1.9,1.9 -0.5,0.7 -0.8,1.1 -1.1,1.7 m 3.9,3.9 c -1,-1.6 -2,-2.7 -3.2,-3.4 0.9,-0.9 1.4,-1.4 2.4,-2.3 0.8,-0.7 1.2,-1 2.1,-1.6 -0.1,1.5 -0.3,2.3 -0.5,3.8 -0.2,1.4 -0.4,2.3 -0.8,3.5 m 4.2,6.3 c 0.1,2.5 0.1,5.1 0.1,8.2 -0.5,-3.3 -1,-6.1 -1.7,-8.4 z m -0.2,-8.9 c 0,0.4 0,0.9 0,1.3 0,2.2 0,4.1 0.1,6 l -2.3,-0.9 c -0.3,-0.8 -0.6,-1.5 -0.9,-2.1 0.1,-0.6 0.2,-1.1 0.4,-1.7 0.3,-1 0.6,-1.6 1.1,-2.5 z m -6.7,-14.4 c 2.2,1.3 3.8,3.1 5,5.6 -0.1,0.4 -0.3,0.7 -0.6,1.1 -0.2,0.3 -0.3,0.4 -0.6,0.6 l -2.3,-2 c 0.1,-0.7 0,-1.2 -0.4,-1.8 -0.3,-0.5 -0.7,-0.7 -1.2,-0.8 -0.1,-0.6 -0.1,-1 0,-1.6 0,-0.4 0.1,-0.7 0.1,-1.1 m -11.5,0.9 c -2.8,-0.1 -5.1,0.8 -7.1,2 1.5,-2.3 4,-3.8 6.9,-4.4 0.2,0.4 0.2,0.7 0.3,1.2 0,0.4 0,0.8 -0.1,1.2 m 4.1,0.9 c -0.5,-0.3 -1.1,-0.5 -1.7,-0.6 -0.4,-0.1 -0.8,-0.2 -1.2,-0.2 0.1,-0.5 0.1,-0.9 0.1,-1.5 0,-0.5 -0.1,-0.9 -0.2,-1.3 0.7,-0.1 1.3,-0.1 2,-0.2 l 1.2,1.2 c 0.2,0.8 0.2,1.2 0,2 0,0.2 -0.1,0.4 -0.2,0.6 m -2.7,1.4 c 1.7,-0.1 3.5,0.1 5.2,0.7 -0.3,-0.4 -0.7,-0.9 -1.2,-1.3 v -1.7 c 0.1,-0.6 0.2,-0.9 0.3,-1.5 0.1,-0.5 0.1,-0.8 0.2,-1.2 h 0.2 c 0.5,0.1 1,0.2 1.5,0.3 0.3,0.8 1,2.1 1.3,2.5 0.3,0.3 0.5,0.5 0.8,0.8 0,0 -0.7,1.3 -0.8,1.9 -0.2,1.2 -0.1,2.3 0.3,3.2 l -2.3,-1.6 c -0.2,0.6 -0.4,1.3 -0.3,1.6 0.3,1.3 0.4,2.1 0.3,3.4 -0.1,0.6 -0.1,1.1 -0.2,1.6 -2.2,-0.4 -4.5,-0.1 -6.5,0.6 -0.1,-0.7 -0.1,-1.2 0,-2 0.1,-0.9 0.5,-1.4 0.7,-2.3 0.1,-0.7 0,-1.1 0.1,-1.8 0,-0.5 0.2,-2.2 0.4,-3.2 m -7.9,2.7 c 1.8,-1.3 3.9,-2.1 6.2,-2.5 -0.2,1.5 -0.4,2.5 -0.6,4.1 l -0.3,2 -1,-0.1 c -0.6,-0.4 -0.9,-0.6 -1.5,-1 -1.2,-0.9 -1.9,-1.5 -2.8,-2.5 m -4.9,6.5 c 0.9,-2.2 2.2,-4.1 3.3,-5.2 0.2,0.9 0.3,1.5 0.5,2.5 0.3,1.2 0.5,1.8 1,2.9 -0.7,-0.1 -1.1,-0.2 -1.9,-0.1 -0.7,0 -1,0.3 -1.7,0.2 -0.4,0 -0.8,-0.1 -1.2,-0.3 m -2.1,8.7 c 0.1,-1.3 0.4,-2.2 0.9,-3.5 0,-1.4 0.3,-2.9 0.9,-4.4 l 2.2,3.8 -0.9,2.2 c -0.8,0.4 -1.2,0.7 -1.9,1.1 -0.5,0.3 -0.8,0.5 -1.2,0.8 m 1.4,7.1 c -0.9,-1.5 -1.4,-3.3 -1.5,-5.3 0.9,0.5 1.5,1 2.2,1.9 0.7,0.8 1,1.4 1.5,2.4 -0.3,0.2 -0.5,0.4 -0.9,0.5 -0.4,0.2 -0.9,0.4 -1.3,0.5 m 6.3,-4.1 c -1.2,2.7 -1.7,5.8 -1.6,8.3 -1.7,-0.9 -3,-2 -4,-3.3 0.5,-0.1 0.8,-0.3 1.4,-0.5 0.8,-0.3 1.2,-0.5 2,-0.8 -0.1,-1.1 -0.3,-1.8 -0.9,-2.8 -0.4,-0.7 -0.9,-0.9 -1.1,-1.6 -0.2,-0.5 -0.2,-0.7 -0.2,-1.2 0.7,-0.1 1.1,-0.1 1.7,0.1 0.5,0.2 0.8,0.4 1.3,0.7 0.6,0.4 0.9,0.7 1.4,1.1 m 1.7,-2.9 c -0.2,0.2 -0.3,0.5 -0.5,0.7 l -1.6,-2 -1.6,-0.7 c 0.2,-0.6 0.8,-1.7 1.1,-2.1 -0.7,-0.3 -1.5,-2 -1.8,-2.9 0.9,0.1 1.4,0.2 2.2,0.1 0.6,-0.1 0.9,-0.1 1.5,-0.3 l -1.6,-5.5 c 1.4,0.4 2.2,0.8 3.4,1.5 1,0.7 1.9,0.8 2.4,2 0.1,0.3 0.2,0.5 0.2,0.8 -1.8,0.8 -3.2,2.1 -4,3.9 -0.1,0.8 -0.1,1.2 -0.1,2 0.2,1 0.2,1.6 0.4,2.5 m 19.8,4.3 c 0.3,1.9 0.5,4.1 0.3,6.4 -0.9,-2.1 -1.8,-4.2 -2.9,-6.2 z m -3.7,-8.1 c 1.7,1.9 3,4.4 3.6,7.6 -0.5,-0.5 -1.1,-0.7 -1.8,-1 -0.7,-0.2 -1.3,-0.3 -1.9,-0.3 l -0.5,-0.7 c 0.3,-0.7 0.4,-1.4 0.5,-2.3 0.2,-1.3 0.2,-2.1 0.1,-3.3 m -5.6,-3.5 c 1.7,0.5 3.3,1.4 4.7,2.6 -0.2,0.8 -0.3,1.6 -0.4,2.4 -0.1,1.1 -0.2,1.9 -0.2,2.9 -1.6,-1.9 -3.4,-3.3 -5.4,-3.8 z m -7.7,0.7 c 1.8,-1 3.8,-1.4 6.1,-1.1 h 0.2 c -0.5,0.8 -0.9,1.4 -1.6,2.3 -0.5,0.6 -0.8,1 -1.4,1.5 -0.6,-0.6 -1,-0.9 -1.7,-1.4 -0.7,-0.5 -1,-0.8 -1.6,-1.3 m -1.6,1 c 0.4,-0.3 0.7,-0.5 1.1,-0.7 0.2,0.3 0.4,0.6 0.6,1 0.4,0.9 0.6,1.6 0.7,2.4 -0.9,0.4 -1.7,0.9 -2.4,1.6 -0.2,-0.5 -0.3,-0.9 -0.4,-1.5 -0.1,-1.1 0,-1.9 0.4,-2.8 m 34.9,12 c 1.1,-0.6 2.3,-1 3.6,-1 -0.4,0.4 -0.6,0.9 -0.9,1.5 -0.2,0.4 -0.3,0.7 -0.4,1.2 -0.3,-0.5 -0.6,-0.8 -1.2,-1.2 -0.4,-0.2 -0.7,-0.4 -1.1,-0.5 m 4.3,-1 c 0.3,0 0.6,0.1 0.8,0.2 1.7,0.4 2.8,1.7 3.5,3.5 -1,0.5 -1.6,0.9 -2.5,1.8 -0.3,0.3 -0.5,0.5 -0.7,0.8 -0.4,-0.3 -0.9,-0.6 -1.5,-0.8 -0.3,-0.1 -0.6,-0.2 -1,-0.2 0,-1.3 0.2,-2.2 0.7,-3.6 0.3,-0.6 0.4,-1.1 0.7,-1.7 m 5,6.2 c 0.4,2.9 -0.2,6.3 -1.6,8.7 0.3,-2 0.2,-4.3 -0.5,-6.2 0.8,-0.4 1.3,-0.9 1.8,-1.8 0.1,-0.2 0.2,-0.4 0.3,-0.7 m -14.7,3.3 c 0.3,-2.4 1.3,-4.6 2.8,-6.3 0.8,0.2 1.4,0.5 2.1,1.1 0.6,0.4 0.9,0.7 1.3,1.2 -2.5,0.4 -5,2 -6.2,4 m 23.9,0.5 c -4.9,8.3 -11.3,12.4 -14.5,12.3 0.6,-0.9 0.8,-2.1 0.7,-2.8 -2.8,0.1 -4.7,-1.3 -6.2,-3.8 -1.1,-1.9 -0.8,-5.7 -0.8,-5.7 -2.6,-0.4 -4.1,2.3 -4.1,4.7 v 24.3 c 0,1.8 0.2,3.1 0.9,4.3 2.6,5.2 8.5,8.3 13.5,7.7 -2.2,2.4 -4.4,4.1 -7.9,4.4 -2,0.2 -3.2,0.1 -5.1,-0.6 2.4,2.2 4.8,3.3 8.1,2.7 3.4,-0.6 5.3,-3.6 7,-4.1 1.1,-0.3 2,-0.1 3.2,0.1 -1.5,0.2 -2.6,1 -3.4,2 -0.6,0.8 -0.8,2.3 -0.8,3.2 1.1,0.3 2.3,0.3 3.7,-0.2 1,-0.4 1.5,-0.8 2.3,-1.6 1.5,1 2.5,3.5 2.5,3.5 -1.5,-0.6 -3,-0.7 -4.4,-0.2 -4.2,1.4 -5.9,4.1 -13.8,2.7 -3.5,-0.6 -4.6,-3.1 -7.4,-3.5 0.9,0.6 1.5,1.4 1.9,2.6 0.3,0.9 0.4,1.4 0.3,2.3 4.5,-1.1 7.3,1.5 10.4,1.7 4,0.3 4.5,-3.3 11,-3.2 2,0 4.8,1.4 5.7,3.6 -2.1,-1 -5.3,-0.7 -7,-0.2 -2.6,0.7 -4.2,1.6 -6.1,3.6 1.9,0.7 3.1,1 5.2,0.9 1.7,-0.1 2.7,-0.3 4.3,-0.9 -2.3,2.2 -4.4,3.4 -8,4.6 -2.4,0.8 -4,0.5 -6.4,0 0.7,-0.4 1.1,-1.1 1.1,-1.1 -3.6,-0.6 -3.9,-2.8 -6.9,-3.4 -0.8,-0.2 -1.2,-0.2 -2,-0.3 2.9,5.5 9.6,8.7 15,7.4 2.6,-0.6 5.9,-1.7 8.5,-4.3 -0.8,3.8 -2.2,5.8 -5.3,7.2 -4.2,1.8 -7.4,2.2 -11.7,0.6 1.9,1.7 4.1,2.4 7,2.9 1.9,0.3 3,0.4 5,0.2 -5,3 -13,1.4 -18.4,-2.6 -3.8,-2.8 -5.9,-5.6 -7.5,-10.3 0.6,5 1.7,10.5 6.7,13.7 2.4,1.5 4.7,2.5 6.9,2.2 -1.8,1.3 -4.5,1.6 -6.6,1.6 -4.2,0 -8.2,-4 -10,-8.7 0.4,5.2 -1.7,8.7 -5.3,8.7 -2.1,0 -3.1,-0.9 -5.1,-0.9 -1.2,0 -2.1,0.3 -3.4,0.8 0.6,-1.3 0.8,-2.2 1.9,-3.1 2.1,-2 6.3,-2 7.8,-5.4 1,-2.2 0.8,-3.6 0.5,-6 -1.5,4.3 -4.3,6.3 -9.1,8.5 -2.6,1.2 -3.9,3.8 -4.5,5.9 -0.2,-2.9 -0.1,-4.9 1.5,-7.4 1.8,-3 6.2,-3.8 8.1,-6.9 1.4,-2.4 1.7,-4.1 1.7,-6.9 -1,3.3 -2.4,5.6 -4.1,6.8 -3.6,2.5 -7.5,3.6 -9.3,6.7 -1.5,2.5 -1.5,4.5 -1,7.3 -1.9,-1.8 -2.6,-3.9 -2.2,-6.5 0.3,-2.3 1.2,-3.7 3.1,-5 -2.7,0.3 -4.6,1.8 -5.4,4.4 -0.7,2.1 -0.4,3.8 0.9,5.6 -4.6,-1.2 -4.3,-7.6 -1.4,-10.7 5,-5.4 13.8,-5 10.1,-14.8 -0.4,3.7 -1.1,5.9 -3.8,7.8 -4.4,3.1 -11.2,2.8 -12.4,10.1 -0.4,-5.6 1.4,-7.5 4.6,-10.5 2,-1.9 5.8,-2.8 5.6,-8.3 -1.3,3 -3.1,4.2 -5.5,5.3 -2.9,1.3 -4.6,0.7 -7,3.7 -0.1,-2.2 0.6,-4.2 2.7,-5.5 1.9,-1.1 3.9,-0.9 5.4,-3 0,0 -1.6,-0.6 -4,0.3 2.3,-2.8 3.9,-2.1 6.2,-3.2 1.4,-0.7 1.9,-1.2 2.9,-2.3 -2,-0.2 -3.8,-0.3 -5.8,0.2 -2.4,0.6 -4.9,2.6 -4.9,2.6 1.5,-4.1 7.1,-7.5 12.7,-9.1 7.6,-2.1 10.7,-2.9 12.1,-5.5 1,-1.8 1.1,-2.4 1.1,-6.5 v -24.1 c 0,-2.7 -4.4,-1.9 -5.6,-0.6 -1.2,1.2 -1.5,2.6 -0.6,4.4 -5.5,0.1 -6.9,-4.2 -6.9,-4.2 0,0.5 0,1 0,1.5 -1.9,-0.9 -3,-1.9 -4.1,-3.7 -0.7,-1.2 -1,-1.9 -1.3,-3.3 -1.7,1.3 -6.2,1.8 -6.9,1.3 -1.8,-1.3 -2.9,-4.8 -3.4,-8.2 -0.4,-3.2 -0.2,-5.2 0.8,-8.2 -2.6,-4.6 -3.2,-10 -3.2,-15.4 0,-4.5 2.8,-10.3 6.6,-14 1.5,-7.6 9.7,-12.1 15.7,-12.1 5.7,0 10.4,3.3 13.2,9.3 2.6,-6 8.8,-9.3 15.1,-9.3 5.9,0 10,2.2 13.4,7.1 2.8,0.6 4.5,1.2 6.5,3.3 2.6,2.7 4.4,5.2 4.6,9.7 0,1.3 -0.5,1.9 -1.2,3 2.3,3.2 3.2,5.6 3.2,9.5 0,4 -0.4,6.1 -2.1,9.3 0.2,0.4 0.3,0.6 0.4,1 0.2,0.6 0.2,0.9 0.2,1.6 -1.3,0.4 -2.7,0.3 -3,1.6 -1.2,1.1 1.3,6.7 -2.7,13.8 m -46.3,60.3 c 3.1,-3.1 4.1,-6.8 2.7,-10.9 -0.8,-2.6 -1.9,-4 -4.1,-5.5 0.6,-0.7 1,-1.1 1.7,-1.7 0.6,-0.5 1,-0.8 1.6,-1.3 l 0.8,2.1 c 1,2.7 2.5,4.4 2.6,6.9 0.1,4.5 -2.7,8.3 -5.3,10.4 m 4.8,15.1 c 1.3,-0.3 2,-0.6 3.1,-1.4 1.5,-1.1 2.2,-2.1 2.9,-3.9 0.2,2.1 -0.1,4.2 -2,5.2 -1.5,0.7 -2.7,0.6 -4,0.1"
   id="path926" />
		</g>
	</g>
</g>
</svg>
